<svg xmlns="http://www.w3.org/2000/svg" viewBox="0 0 24 24">
  <g id="Layer_2" data-name="Layer 2">
    <g id="Layer_1-2" data-name="Layer 1">
      <path d="M12,0A12,12,0,1,0,24,12,12,12,0,0,0,12,0Zm2.83,15.64c-.22.27-.44.46-.65.72-.07.09-.15.1-.14.18s-.15.09-.23.18a9.43,9.43,0,0,0-.72.73,2,2,0,0,0-.37,1.09c-.05,1,.71,1.29.56,2.19a.8.8,0,0,1-.33.6.73.73,0,0,1-.8.09.81.81,0,0,1-.36-.36c-.41-.77.15-1.55.07-2.27a2.72,2.72,0,0,0-1.41-1.86,4.56,4.56,0,0,1-.73-.81C7.38,13.15,7.07,5.93,7,4.49a.27.27,0,0,1,.22-.27l1-.1a.35.35,0,0,1,.36.28l.09.88.15-2.36a.63.63,0,0,1,.59-.47c.08,0,.17.07.26.14l2.27,1.6a.28.28,0,0,1,.12.39A11.28,11.28,0,0,0,10.87,12c.79,4.19,1.73,4,2,4s.83-.57,1.13-2.22h.08a3.23,3.23,0,0,0,2-.13A8.62,8.62,0,0,1,14.83,15.64Zm2.65,0a.35.35,0,0,1-.29.27.61.61,0,0,1-.34-.12c-.1-.23,0-.33,0-.89a1.58,1.58,0,0,1,0-.65c.07-.08,0-.24.13-.25s.18.14.18.22a1.57,1.57,0,0,1,.15.63C17.46,15.36,17.54,15.43,17.48,15.6Zm0-2.75h-.08c-.23.11-.21.27-.19.43s-.06.24-.21.34-.16-.06-.33-.12a.23.23,0,0,0-.17-.07c-.09-.07-.16,0-.32,0H16a3.93,3.93,0,0,1-1.93.05,2.78,2.78,0,0,1-1.1-.52l-.27-.21c-1.89-1.81-1.87-5.28.76-5.57,1.6-.17,2.8,1.23,3,3.54l0,.24a1.28,1.28,0,0,1-.54.22,3.49,3.49,0,0,1-.87.17,5.54,5.54,0,0,1-.89-.06h-.08L14,10.65c-.22-1.27-.85-1.12-.93-1.11s-.28.36-.21,1a1.42,1.42,0,0,0,1.16,1.09c.16,0,.82.07,1.06,0a5.13,5.13,0,0,0,1-.19c.08,0,.15-.1.31-.12a1.57,1.57,0,0,1,.38-.2c.07-.09.24,0,.33,0l.45,1.16A.35.35,0,0,1,17.5,12.85Z"/>
    </g>
  </g>
</svg>
