<svg xmlns="http://www.w3.org/2000/svg" viewBox="0 0 386.15 750.45"><g id="Layer_2" data-name="Layer 2"><g id="Layer_2-2" data-name="Layer 2"><path d="M378.48,437.56c-1,.43-2.09.88-3.24,1.34-9.2,4.61-8.38,9.73-10.55,14.31-2.05,4.36-4.55,9.41-9,11.19S348,462,344.24,458.93a67.87,67.87,0,0,0-7.43-4.69c-3.52-2.08-6.05-1-11.8-.24-1,.2-2,.39-3,.57-2.45.45-4.93.87-7.45,1.24-23.88,3.59-50.65,3.69-75.69-4.9a110.75,110.75,0,0,1-40.45-24.32,116.56,116.56,0,0,1-8.95-9.41c-67.26-79-49.31-211.8,54.47-211.8,61.11,0,102.92,60.83,102.92,150.76q0,4.5-.23,9c0,.49,0,1-.08,1.48a147.07,147.07,0,0,1-20.42,7.1c-12.58,3.5-26.24,3-33.12,3.18-10.82.33-35.76-6.2-35.76-6.2a33.82,33.82,0,0,1-3.87-1.11,201.63,201.63,0,0,0,.15-29.32c-3.68-48.77-28.56-46.75-31.87-45.82-9.41,2.65-14,13.61-11.59,36.09,4.26,39,41.49,47.41,41.49,47.41l1.09.28c5.49,1.4,30.32,7.52,41.84,7.17,8.26-.25,24.66.39,39.77-3.82,3.89-1.08,7.7-2.38,11.31-3.75,6-2.3,11.41-4.82,15.63-6.93a8.3,8.3,0,0,1,11.71,5.23l12.77,46.57A12.52,12.52,0,0,1,378.48,437.56Z"/><path d="M318.54,461.38a316.59,316.59,0,0,1-56.12,75.28,292.88,292.88,0,0,1-27,23.94q-3.9,3-7.78,5.8l-.22.15c-2.46,1.69-5.32,3.61-8.36,5.66l-.15.09c-13.83,8.26-26.56,18-32.32,23.68-15.79,15.45-19.6,39.68-20,42.29-5.52,37.88,22.82,54.09,12.34,86.66-1.53,4.76-5.2,15.62-15.63,21.54a32.49,32.49,0,0,1-32.51-.78c-4.43-2.83-9.15-7.62-12.54-16.26-11.67-29.77,11-58.24,11.52-89.14.34-19.56-8.07-46.36-45.5-79h0A158.7,158.7,0,0,1,60.8,531.67C-18,406,.66,123.27,5.15,68.26a10,10,0,0,1,10.18-9.14l36.16.9a14.11,14.11,0,0,1,13.74,13.6L66.43,108,80.7,17.44A20.63,20.63,0,0,1,114.93,5.37l80.29,72.86a12.87,12.87,0,0,1,2,16.82c-21,30.55-84.52,135.88-74.3,279.76,11.75,165.54,49.79,164.38,60.21,164.38,5.42,0,34-17.79,54-82.39,1.1.42,2.21.83,3.34,1.22C258.91,464.46,284.7,468.61,318.54,461.38Z"/><path d="M347.25,488.82c-3.49,8.82-2.57,14.88-2.92,23.74-.82,20.89-7.47,26.22-2.52,33.58A15.59,15.59,0,0,0,355.18,553c7.87-.55,12.32-8.51,12.76-9.33,3.83-7.1-.3-10.64-1.93-30.29-.89-10.63-.27-16.75-4.31-25.55-1.38-3-3.88-8.31-7.16-8.27C350.92,479.55,348.34,486.06,347.25,488.82Z"/></g></g></svg>